<?xml version="1.0" standalone="no"?>
<!DOCTYPE svg PUBLIC "-//W3C//DTD SVG 20010904//EN"
 "http://www.w3.org/TR/2001/REC-SVG-20010904/DTD/svg10.dtd">
<svg version="1.0" xmlns="http://www.w3.org/2000/svg"
 width="512.000000pt" height="512.000000pt" viewBox="0 0 512.000000 512.000000"
 preserveAspectRatio="xMidYMid meet">

<g transform="translate(0.000000,512.000000) scale(0.100000,-0.100000)"
fill="#000000" stroke="none">
<path d="M2462 5100 c-114 -52 -2072 -1129 -2103 -1157 -20 -18 -47 -57 -60
-86 l-24 -52 -3 -1205 c-2 -857 0 -1224 8 -1270 13 -75 58 -145 117 -184 21
-13 496 -274 1056 -580 738 -402 1031 -557 1063 -562 24 -3 64 -3 88 0 32 5
328 162 1078 571 568 310 1048 576 1066 590 47 38 79 93 92 161 8 42 10 401 8
1269 l-3 1210 -24 52 c-13 29 -40 68 -60 86 -31 28 -1989 1105 -2103 1157 -56
26 -140 26 -196 0z m691 -797 c323 -359 587 -655 587 -658 0 -3 -531 -5 -1180
-5 -649 0 -1180 2 -1180 5 0 3 86 101 190 216 167 185 190 215 190 244 0 24
-7 39 -26 54 -56 44 -59 42 -346 -275 -141 -156 -217 -233 -226 -229 -8 3
-151 54 -318 113 -167 58 -304 109 -304 112 1 4 808 447 1580 867 68 37 81 41
64 22 -11 -13 -91 -102 -177 -196 -134 -147 -157 -178 -157 -205 0 -43 34 -78
75 -78 30 0 57 27 331 334 165 184 302 334 305 333 3 -1 270 -296 592 -654z
m679 -10 c411 -224 747 -410 748 -413 0 -3 -137 -54 -304 -112 -167 -59 -310
-110 -318 -113 -9 -4 -69 55 -179 177 -350 388 -832 924 -848 942 -10 12 18 1
69 -27 47 -26 421 -230 832 -454z m-3061 -659 c178 -64 325 -117 327 -119 3
-3 -636 -1737 -663 -1800 -11 -25 -14 141 -14 1003 -1 845 1 1032 12 1032 7 0
159 -52 338 -116z m3928 -916 c0 -862 -3 -1028 -14 -1003 -30 70 -666 1797
-663 1801 8 8 644 233 661 233 16 1 17 -54 16 -1031z m-909 756 c0 -7 -431
-885 -662 -1348 -167 -335 -170 -345 -131 -388 17 -19 64 -24 92 -9 9 5 197
374 416 820 220 446 402 811 405 811 6 0 761 -2043 756 -2047 -6 -6 -1958
-405 -1962 -400 -3 2 57 128 132 280 133 266 137 276 124 306 -24 58 -83 69
-122 23 -12 -15 -79 -143 -148 -285 -68 -141 -127 -257 -130 -257 -4 0 -1210
2441 -1226 2483 -6 16 57 17 1225 17 677 0 1231 -3 1231 -6z m-1972 -1336
c331 -672 600 -1223 598 -1226 -4 -4 -1956 395 -1962 401 -5 4 750 2047 756
2047 3 0 276 -550 608 -1222z m-138 -1231 l795 -163 3 -282 c1 -155 1 -282 -2
-282 -5 0 -1628 889 -1635 896 -3 3 5 3 19 -1 14 -3 383 -79 820 -168z m2598
168 c-6 -6 -1629 -895 -1634 -895 -3 0 -3 127 -2 282 l3 282 810 167 c871 179
831 171 823 164z"/>
<path d="M2195 3101 c-109 -28 -195 -120 -195 -211 0 -55 59 -87 110 -60 11 6
28 31 39 55 33 74 103 93 158 43 61 -56 37 -114 -151 -366 -75 -101 -136 -190
-136 -196 0 -37 23 -75 52 -85 49 -17 373 -14 407 4 46 23 54 66 21 108 -20
25 -25 26 -139 29 l-119 3 85 115 c92 123 152 235 160 298 9 64 -20 142 -71
193 -56 58 -151 88 -221 70z"/>
<path d="M2810 3101 c-83 -17 -159 -78 -198 -161 -22 -48 -25 -434 -3 -494 17
-50 94 -133 141 -152 40 -17 127 -22 182 -11 55 11 131 76 162 138 26 52 26
56 26 265 0 231 -4 253 -62 326 -50 64 -165 105 -248 89z m108 -164 c46 -22
52 -52 52 -252 0 -172 -2 -189 -20 -216 -35 -49 -119 -59 -164 -20 -38 32 -46
74 -46 233 0 173 9 219 48 246 45 33 78 35 130 9z"/>
</g>
</svg>
