<?xml version="1.0" standalone="no"?>
<!DOCTYPE svg PUBLIC "-//W3C//DTD SVG 20010904//EN"
 "http://www.w3.org/TR/2001/REC-SVG-20010904/DTD/svg10.dtd">
<svg version="1.0" xmlns="http://www.w3.org/2000/svg"
 width="512.000000pt" height="512.000000pt" viewBox="0 0 512.000000 512.000000"
 preserveAspectRatio="xMidYMid meet">

<g transform="translate(0.000000,512.000000) scale(0.100000,-0.100000)"
fill="#000000" stroke="none">
<path d="M2460 5096 c-103 -43 -2075 -1127 -2107 -1158 -17 -17 -42 -54 -55
-82 l-23 -51 0 -1245 0 -1245 27 -55 c15 -31 40 -68 55 -82 30 -28 2009 -1115
2103 -1154 70 -30 130 -30 200 0 94 39 2073 1126 2103 1154 15 14 40 51 55 82
l27 55 0 1245 0 1245 -23 51 c-13 28 -38 65 -55 82 -32 31 -2004 1115 -2107
1158 -30 13 -75 24 -100 24 -25 0 -70 -11 -100 -24z m699 -798 l591 -658
-1190 0 -1191 0 196 217 c208 230 216 245 177 294 -13 15 -30 22 -52 22 -39 0
-55 -16 -347 -339 -91 -102 -171 -183 -177 -181 -6 2 -149 53 -318 113 -170
59 -308 111 -308 114 0 3 330 185 732 405 965 527 935 512 918 490 -8 -10 -88
-100 -177 -198 -132 -146 -163 -185 -163 -209 0 -37 40 -78 77 -78 32 0 30 -2
381 392 136 152 250 276 253 275 4 -1 273 -298 598 -659z m689 -13 c402 -220
732 -403 732 -406 0 -3 -138 -54 -307 -114 -170 -59 -313 -110 -319 -112 -6
-2 -89 83 -185 189 -425 470 -825 915 -839 933 -17 22 -49 38 918 -490z
m-3077 -650 c178 -64 325 -118 327 -120 4 -4 -653 -1787 -669 -1815 -5 -8 -9
445 -9 1018 0 881 2 1032 14 1032 8 0 160 -52 337 -115z m3929 -917 c0 -573
-4 -1026 -9 -1018 -18 31 -673 1811 -669 1816 9 8 643 233 661 234 16 0 17
-56 17 -1032z m-910 754 c0 -5 -153 -318 -341 -698 -449 -908 -471 -954 -471
-989 1 -57 80 -87 119 -46 10 11 195 380 412 820 217 441 397 801 401 801 6 0
761 -2042 756 -2047 -7 -7 -1957 -405 -1962 -400 -3 2 53 121 124 264 72 142
131 268 133 278 8 53 -28 95 -81 95 -32 0 -62 -49 -189 -313 -68 -141 -127
-257 -131 -257 -4 0 -59 107 -123 237 -64 131 -339 690 -611 1243 -273 553
-496 1008 -496 1013 0 4 554 7 1230 7 677 0 1230 -4 1230 -8z m-1972 -1333
c332 -672 600 -1224 598 -1227 -5 -4 -1956 394 -1962 401 -5 5 750 2047 756
2047 4 0 277 -550 608 -1221z m-153 -1229 c435 -88 798 -163 808 -166 16 -5
17 -27 17 -285 0 -171 -4 -279 -10 -279 -11 0 -1620 878 -1635 893 -6 6 -3 7
10 4 11 -3 376 -78 810 -167z m2610 162 c-17 -15 -1625 -892 -1636 -892 -6 0
-8 104 -7 282 l3 281 815 168 c892 183 838 173 825 161z"/>
<path d="M2200 3100 c-129 -23 -239 -173 -183 -249 38 -50 111 -34 129 30 12
42 55 73 100 73 28 0 43 -7 65 -32 16 -18 29 -44 29 -58 0 -42 -52 -128 -187
-308 -139 -185 -150 -213 -105 -259 21 -21 32 -22 194 -25 194 -4 230 0 258
30 26 28 25 58 0 91 -20 25 -25 26 -139 29 l-118 3 83 115 c117 160 159 246
158 325 -1 149 -137 262 -284 235z"/>
<path d="M2815 3100 c-86 -13 -149 -62 -197 -153 -22 -40 -23 -53 -23 -257 1
-241 4 -255 73 -332 51 -56 110 -81 192 -80 80 1 123 18 179 72 74 72 81 101
81 338 0 183 -3 212 -20 250 -55 120 -162 182 -285 162z m82 -150 c6 0 25 -14
42 -31 l31 -31 0 -194 c0 -217 -4 -234 -68 -261 -66 -27 -142 11 -156 78 -3
18 -6 102 -6 188 0 128 3 162 18 191 19 39 76 73 107 65 11 -2 25 -5 32 -5z"/>
</g>
</svg>
