<?xml version="1.0" standalone="no"?>
<!DOCTYPE svg PUBLIC "-//W3C//DTD SVG 20010904//EN"
 "http://www.w3.org/TR/2001/REC-SVG-20010904/DTD/svg10.dtd">
<svg version="1.0" xmlns="http://www.w3.org/2000/svg"
 width="512.000000pt" height="512.000000pt" viewBox="0 0 512.000000 512.000000"
 preserveAspectRatio="xMidYMid meet">

<g transform="translate(0.000000,512.000000) scale(0.100000,-0.100000)"
fill="#000000" stroke="none">
<path d="M1413 4940 c-31 -13 -43 -41 -43 -104 l0 -56 256 0 256 0 -4 62 c-4
51 -9 65 -32 85 -26 22 -32 23 -219 22 -106 0 -202 -4 -214 -9z"/>
<path d="M1072 4600 c-27 -11 -55 -71 -45 -97 3 -10 15 -28 26 -40 l20 -23
547 0 c535 0 547 0 568 20 46 43 37 109 -18 137 -30 15 -1061 18 -1098 3z"/>
<path d="M1277 4103 c-5 -188 -21 -263 -81 -381 -76 -150 -165 -242 -354 -368
-351 -234 -568 -555 -649 -961 -24 -120 -24 -373 0 -503 53 -288 202 -565 422
-785 244 -243 553 -386 896 -415 248 -20 488 25 730 137 l96 45 -31 83 -31 83
-60 -33 c-306 -171 -700 -198 -1039 -70 -420 158 -744 557 -818 1009 -6 39
-12 127 -12 196 -1 110 2 131 22 175 47 103 131 157 243 157 78 0 118 -16 182
-72 80 -71 119 -85 232 -85 118 0 141 10 256 106 134 112 261 153 407 130 99
-15 198 -63 282 -135 93 -81 151 -106 243 -106 95 0 151 20 218 77 63 54 121
82 166 83 25 0 50 15 110 66 43 36 115 90 161 120 l83 55 -52 99 c-112 214
-274 392 -494 539 -322 217 -429 403 -442 764 l-6 157 -337 0 -338 0 -5 -167z"/>
<path d="M3485 2715 c-275 -44 -502 -155 -699 -344 -336 -323 -470 -797 -352
-1246 101 -386 383 -705 756 -858 288 -119 651 -124 925 -14 120 49 155 67
257 133 140 91 261 211 354 351 72 108 91 144 141 268 110 274 105 637 -14
925 -88 215 -245 416 -432 554 -264 193 -620 281 -936 231z m774 -511 c142
-42 220 -220 154 -348 -31 -60 -811 -1093 -844 -1118 -79 -60 -172 -70 -267
-28 -56 25 -348 322 -375 382 -64 139 28 317 179 348 95 20 165 -3 250 -82
l31 -29 305 408 c168 224 320 419 338 432 68 49 143 61 229 35z"/>
<path d="M4140 2034 c-14 -9 -171 -212 -350 -451 -179 -238 -333 -441 -343
-450 -10 -10 -33 -17 -52 -17 -29 0 -46 11 -112 75 -43 42 -90 79 -106 83 -63
15 -118 -50 -92 -110 16 -36 282 -300 311 -308 12 -4 32 -2 46 3 15 6 167 200
421 538 373 498 397 532 397 571 0 32 -5 45 -22 56 -37 24 -71 27 -98 10z"/>
<path d="M1547 2379 c-57 -13 -106 -42 -177 -104 -113 -98 -213 -138 -345
-138 -123 0 -249 48 -339 128 -73 66 -156 39 -170 -56 -11 -73 12 -264 45
-379 88 -304 325 -578 614 -708 39 -17 111 -43 160 -58 85 -26 102 -28 285
-28 193 -1 196 -1 297 32 102 32 291 120 311 145 8 10 9 31 2 73 -6 32 -10
109 -10 169 0 222 52 439 152 639 32 63 36 77 21 71 -52 -21 -96 -28 -173 -28
-133 0 -239 42 -350 140 -74 66 -100 81 -167 98 -63 17 -99 17 -156 4z m212
-355 c40 -33 43 -83 6 -119 -73 -74 -189 33 -123 113 31 37 77 40 117 6z
m-671 -180 c69 -78 -49 -184 -123 -109 -44 43 -26 115 35 138 26 10 64 -3 88
-29z m847 -249 c41 -40 33 -105 -16 -130 -42 -22 -67 -18 -100 14 -36 36 -37
70 -3 110 33 40 83 43 119 6z m-500 -98 c31 -44 13 -100 -38 -122 -54 -22
-117 18 -117 76 0 30 36 77 63 81 32 5 75 -11 92 -35z"/>
</g>
</svg>
