<?xml version="1.0" standalone="no"?>
<!DOCTYPE svg PUBLIC "-//W3C//DTD SVG 20010904//EN"
 "http://www.w3.org/TR/2001/REC-SVG-20010904/DTD/svg10.dtd">
<svg version="1.0" xmlns="http://www.w3.org/2000/svg"
 width="512.000000pt" height="512.000000pt" viewBox="0 0 512.000000 512.000000"
 preserveAspectRatio="xMidYMid meet">

<g transform="translate(0.000000,512.000000) scale(0.100000,-0.100000)"
fill="#000000" stroke="none">
<path d="M1395 4925 c-21 -20 -25 -34 -25 -85 l0 -60 256 0 256 0 -4 62 c-4
51 -9 65 -32 85 -26 22 -32 23 -227 23 -199 0 -200 0 -224 -25z"/>
<path d="M1070 4597 c-52 -26 -60 -89 -18 -134 l21 -23 543 0 c298 0 550 3
559 6 19 8 45 55 45 84 0 12 -13 35 -29 51 l-29 29 -534 0 c-407 0 -539 -3
-558 -13z"/>
<path d="M1280 4136 c0 -346 -123 -573 -412 -763 -276 -183 -424 -347 -555
-620 -131 -270 -171 -570 -118 -868 59 -335 276 -690 545 -894 164 -124 253
-172 427 -230 363 -121 739 -98 1076 68 l94 46 -30 83 -30 82 -51 -28 c-211
-119 -468 -174 -708 -152 -323 30 -602 166 -816 398 -110 118 -160 191 -228
327 -89 182 -126 340 -128 555 -1 112 2 131 23 178 43 96 131 152 241 152 76
0 129 -21 186 -73 69 -62 119 -82 216 -85 108 -5 158 15 268 108 134 113 267
155 413 131 99 -16 179 -55 267 -129 103 -86 163 -113 251 -113 110 0 142 13
251 97 56 43 103 64 148 64 18 0 45 17 86 53 32 30 103 84 156 121 l98 67 -41
81 c-53 106 -78 144 -165 253 -109 136 -197 214 -374 330 -159 105 -248 202
-324 354 -57 113 -76 202 -83 384 l-6 157 -338 0 -339 0 0 -134z"/>
<path d="M3470 2715 c-290 -55 -520 -175 -712 -371 -105 -107 -170 -198 -234
-329 -97 -200 -140 -398 -131 -609 14 -334 140 -623 375 -859 355 -358 892
-471 1367 -288 324 125 609 412 730 735 93 249 107 534 39 787 -125 467 -497
817 -984 924 -103 23 -352 28 -450 10z m827 -526 c58 -28 107 -88 128 -156 16
-49 17 -65 7 -113 -15 -70 -17 -72 -474 -679 -344 -457 -377 -497 -427 -524
-61 -34 -137 -41 -206 -18 -51 17 -368 326 -396 386 -12 25 -19 63 -19 103 0
104 42 178 130 226 43 24 65 29 119 29 79 0 120 -17 182 -72 l47 -41 307 411
c321 427 339 447 428 470 46 11 125 1 174 -22z"/>
<path d="M4148 2043 c-9 -2 -170 -209 -358 -459 -225 -301 -349 -458 -366
-464 -41 -16 -67 -3 -140 71 -79 80 -118 98 -162 75 -35 -18 -55 -66 -42 -99
12 -30 290 -303 316 -311 12 -4 33 -2 47 3 16 6 155 183 411 525 212 284 393
527 402 541 40 62 -30 139 -108 118z"/>
<path d="M1560 2384 c-77 -25 -114 -46 -188 -106 -48 -39 -103 -78 -122 -88
-174 -89 -391 -64 -542 61 -64 54 -91 62 -134 44 -60 -25 -69 -64 -55 -226 13
-161 43 -275 105 -404 122 -254 334 -457 581 -556 169 -67 202 -73 415 -74
194 0 196 0 300 33 58 19 154 59 213 90 102 52 108 57 103 81 -4 14 -9 91 -12
171 -5 121 -3 165 15 269 24 143 73 295 131 410 22 45 38 81 36 81 -2 0 -23
-7 -47 -16 -27 -10 -78 -16 -134 -17 -137 -1 -230 36 -350 138 -33 28 -72 58
-86 67 -57 36 -178 58 -229 42z m208 -370 c30 -34 29 -79 -4 -109 -32 -30 -73
-32 -107 -5 -33 26 -41 63 -22 101 29 54 90 60 133 13z m-701 -153 c72 -45 41
-150 -45 -151 -69 0 -109 92 -59 137 40 37 61 40 104 14z m867 -266 c60 -56 7
-158 -74 -140 -66 15 -88 97 -36 141 35 31 76 31 110 -1z m-509 -90 c65 -64
-11 -163 -100 -129 -17 7 -45 54 -45 76 0 7 9 28 20 46 17 28 25 32 60 32 30
0 47 -7 65 -25z"/>
</g>
</svg>
